<svg xmlns="http://www.w3.org/2000/svg" xmlns:xlink="http://www.w3.org/1999/xlink" viewBox="-2.40128 -2.06514 16.80896 14.45598"><defs><filter id="luminosity-noclip" x="1.9287" y="-8216.3169" width="3.2237" height="32766" filterUnits="userSpaceOnUse" color-interpolation-filters="sRGB"><feFlood flood-color="#fff" result="bg"/><feBlend in="SourceGraphic" in2="bg"/></filter><mask id="mask" x="1.9287" y="-8216.3169" width="3.2237" height="32766" maskUnits="userSpaceOnUse"><g filter="url(#luminosity-noclip)"/></mask><linearGradient id="linear-gradient" x1="89.51325" y1="-2066.27053" x2="89.51325" y2="-2069.32109" gradientTransform="matrix(1, 0, 0, -1, -85.9727, -2061.6474)" gradientUnits="userSpaceOnUse"><stop offset="0.01015" stop-color="#fff"/><stop offset="1"/></linearGradient><linearGradient id="linear-gradient-2" x1="1.46957" y1="-1.59356" x2="8.91518" y2="9.50462" gradientUnits="userSpaceOnUse"><stop offset="0" stop-color="#b28232"/><stop offset="0.22581" stop-color="#ffea74"/><stop offset="0.58602" stop-color="#895c24"/><stop offset="0.78495" stop-color="#f6e16c"/><stop offset="1" stop-color="#b1812d"/></linearGradient><linearGradient id="linear-gradient-3" x1="0" y1="5.16285" x2="12.0064" y2="5.16285" xlink:href="#linear-gradient-2"/><linearGradient id="linear-gradient-4" x1="8.87529" y1="2.7724" x2="1.33608" y2="9.0473" xlink:href="#linear-gradient-2"/><linearGradient id="linear-gradient-5" x1="1.73315" y1="9.6155" x2="1.73315" y2="5.82618" gradientUnits="userSpaceOnUse"><stop offset="0.22581" stop-color="#ffea74"/><stop offset="0.58602" stop-color="#895c24"/><stop offset="0.78495" stop-color="#f6e16c"/></linearGradient><linearGradient id="linear-gradient-6" x1="1.73315" y1="4.44971" x2="1.73315" y2="0.66684" gradientUnits="userSpaceOnUse"><stop offset="0" stop-color="#895c24"/><stop offset="0.5092" stop-color="#f6e16c"/><stop offset="1" stop-color="#895c24"/></linearGradient><linearGradient id="linear-gradient-7" x1="0.5673" y1="0.0703" x2="4.25515" y2="0.0703" xlink:href="#linear-gradient-5"/><linearGradient id="linear-gradient-8" x1="5.37205" y1="-0.10097" x2="5.37205" y2="2.07894" xlink:href="#linear-gradient-6"/><linearGradient id="linear-gradient-9" x1="6.63405" y1="-0.10097" x2="6.63405" y2="2.07894" xlink:href="#linear-gradient-5"/><linearGradient id="linear-gradient-10" x1="7.43707" y1="0.0703" x2="11.83495" y2="0.0703" xlink:href="#linear-gradient-6"/><linearGradient id="linear-gradient-11" x1="10.26905" y1="0.25021" x2="10.26905" y2="4.80783" xlink:href="#linear-gradient-5"/><linearGradient id="linear-gradient-12" x1="10.27005" y1="5.81082" x2="10.27005" y2="10.02574" xlink:href="#linear-gradient-6"/><linearGradient id="linear-gradient-13" x1="7.42834" y1="10.25585" x2="11.63139" y2="10.25585" xlink:href="#linear-gradient-5"/><linearGradient id="linear-gradient-14" x1="6.63405" y1="8.293" x2="6.63405" y2="10.20107" xlink:href="#linear-gradient-6"/><linearGradient id="linear-gradient-15" x1="5.37205" y1="8.69679" x2="5.37205" y2="11.47536" xlink:href="#linear-gradient-5"/><linearGradient id="linear-gradient-16" x1="2.82703" y1="10.25585" x2="4.37344" y2="10.25585" xlink:href="#linear-gradient-6"/><linearGradient id="linear-gradient-17" x1="4.3513" y1="5.36162" x2="4.3513" y2="10.02133" xlink:href="#linear-gradient-5"/><linearGradient id="linear-gradient-18" x1="7.0862" y1="5.30185" x2="7.0862" y2="8.47485" xlink:href="#linear-gradient-6"/><linearGradient id="linear-gradient-19" x1="10.03464" y1="8.6118" x2="8.17419" y2="8.6118" xlink:href="#linear-gradient-5"/><linearGradient id="linear-gradient-20" x1="7.8064" y1="5.29154" x2="7.8064" y2="8.47421" xlink:href="#linear-gradient-5"/><linearGradient id="linear-gradient-21" x1="7.8064" y1="1.77198" x2="7.8064" y2="4.95565" xlink:href="#linear-gradient-6"/><linearGradient id="linear-gradient-22" x1="7.85964" y1="1.7141" x2="8.7224" y2="1.7141" xlink:href="#linear-gradient-5"/><linearGradient id="linear-gradient-23" x1="7.08525" y1="1.77165" x2="7.08525" y2="4.9469" xlink:href="#linear-gradient-5"/><linearGradient id="linear-gradient-24" x1="3.8374" y1="3.39915" x2="6.0039" y2="3.39915" xlink:href="#linear-gradient-6"/><linearGradient id="linear-gradient-25" x1="2.52296" y1="1.7141" x2="3.87198" y2="1.7141" xlink:href="#linear-gradient-5"/><linearGradient id="linear-gradient-26" x1="2.9854" y1="3.3979" x2="5.4053" y2="3.3979" xlink:href="#linear-gradient-5"/><linearGradient id="linear-gradient-27" x1="2.0249" y1="7.7385" x2="5.4053" y2="7.7385" xlink:href="#linear-gradient-6"/><linearGradient id="linear-gradient-28" x1="0" y1="10.25585" x2="2.1021" y2="10.25585" xlink:href="#linear-gradient-2"/><mask id="mask-2" x="1.9287" y="5.1513" width="3.2241" height="3.5914" maskUnits="userSpaceOnUse"><g mask="url(#mask)"><polygon points="3.541 5.158 5.152 5.153 2.866 8.743 1.929 7.683 3.541 5.158" fill="url(#linear-gradient)" style="mix-blend-mode:multiply"/></g></mask><linearGradient id="linear-gradient-29" x1="89.53935" y1="-2066.32803" x2="89.53935" y2="-2069.03878" gradientTransform="matrix(1, 0, 0, -1, -85.9727, -2061.6474)" gradientUnits="userSpaceOnUse"><stop offset="0.01015" stop-color="#fff"/><stop offset="1" stop-color="#fff"/></linearGradient></defs><title>X</title><g style="isolation:isolate"><g id="Layer_2" data-name="Layer 2"><g id="Isolation_Mode" data-name="Isolation Mode"><polygon points="11.749 0.141 7.266 0.141 6.004 2.11 6.004 2.11 6.004 2.11 6.004 2.11 6.004 2.11 4.74 0.141 0.257 0.141 3.466 5.158 0.257 10.186 2.025 10.186 5.231 5.164 5.239 5.152 2.985 1.644 3.915 1.644 6.004 4.894 6.004 4.895 8.09 1.644 9.02 1.644 6.76 5.164 9.02 8.682 8.09 8.682 6.004 5.432 6.004 5.432 2.956 10.186 4.74 10.186 6.004 8.216 6.004 8.216 6.004 8.216 6.004 8.216 6.004 8.216 7.266 10.186 11.749 10.186 8.534 5.18 11.749 0.141" fill="url(#linear-gradient-2)"/><path d="M11.7485.1406,8.5337,5.1797l3.2148,5.0063H7.2642L6.0029,8.2163H6.002L4.7398,10.186H2.9551L6.002,5.4316h.0009L8.0903,8.6821H9.02L6.7598,5.1636,9.02,1.644H8.0903L6.0029,4.8945,6.002,4.894,3.9146,1.644H2.9844L5.2383,5.1518l-.0073.0118L2.0244,10.186H.2568l3.209-5.0278L.2568.1406h4.483L6.002,2.1098h.0009L7.2642.1406h4.4843M12.0044,0H7.1895L6.002,1.8501,4.8164,0H0L3.2935,5.1587.1377,10.1098,0,10.3257H2.1021L5.4053,5.1513,3.2417,1.7842h.5957L6.002,5.1543,8.1685,1.7842h.5957L6.5928,5.1636,8.7642,8.5415H8.1685L6.0039,5.1743,2.6987,10.3257H4.8164L6.002,8.4761l1.1875,1.8496h4.8169L8.6997,5.1797,12.0044,0Z" fill="url(#linear-gradient-3)"/><path d="M11.6216.2104,8.4497,5.1802l3.1719,4.9355H7.3032L6.0625,8.1792l-.0586-.0928-.06.0928L4.7012,10.1157H3.0845L6.0039,5.562,8.0532,8.7524H9.1509L6.8438,5.1636,9.1509,1.5737H8.0532L6.0039,4.7646,3.9527,1.5737H2.856L5.1553,5.1518l-3.169,4.9639H.3848L3.541,5.1631.3848.2104H4.7012L6.0039,2.2387,7.3032.2104h4.3184m.1269-.0698H7.2661L6.0039,2.1098h0L4.7402.1406H.2568L3.4663,5.1582.2568,10.186H2.0249L5.2315,5.1636l.0073-.0118L2.9854,1.644h.9292l2.0893,3.25v.0005L8.0903,1.644H9.02L6.7598,5.1636,9.02,8.6821H8.0903L6.0039,5.4316h0L2.9556,10.186H4.7402L6.0039,8.2163h0L7.2661,10.186h4.4824L8.5337,5.1797,11.7485.1406Z" fill="url(#linear-gradient-4)"/><polygon points="0 10.326 0.257 10.186 3.466 5.158 3.293 5.159 0 10.326" fill="url(#linear-gradient-5)"/><polygon points="3.466 5.158 3.293 5.159 0 0 0.257 0.141 3.466 5.158" fill="url(#linear-gradient-6)"/><polygon points="0 0 0.257 0.141 4.74 0.141 4.816 0 0 0" fill="url(#linear-gradient-7)"/><polygon points="6.004 2.11 6.002 1.85 4.816 0 4.74 0.141 6.004 2.11" fill="url(#linear-gradient-8)"/><polygon points="6.004 2.11 6.002 1.85 7.19 0 7.266 0.141 6.004 2.11" fill="url(#linear-gradient-9)"/><polygon points="7.19 0 7.266 0.141 11.749 0.141 12.004 0 7.19 0" fill="url(#linear-gradient-10)"/><polygon points="12.004 0 11.749 0.141 8.534 5.18 8.7 5.18 12.004 0" fill="url(#linear-gradient-11)"/><polygon points="8.7 5.18 8.534 5.18 11.749 10.186 12.006 10.326 8.7 5.18" fill="url(#linear-gradient-12)"/><polygon points="7.19 10.326 7.266 10.186 11.749 10.186 12.006 10.326 7.19 10.326" fill="url(#linear-gradient-13)"/><polygon points="7.19 10.326 7.266 10.186 6.004 8.216 6.002 8.476 7.19 10.326" fill="url(#linear-gradient-14)"/><polygon points="4.816 10.326 4.74 10.186 6.004 8.216 6.002 8.476 4.816 10.326" fill="url(#linear-gradient-15)"/><polygon points="2.699 10.326 2.956 10.186 4.74 10.186 4.816 10.326 2.699 10.326" fill="url(#linear-gradient-16)"/><polygon points="2.699 10.326 6.004 5.174 6.004 5.432 2.956 10.186 2.699 10.326" fill="url(#linear-gradient-17)"/><polygon points="6.004 5.174 6.004 5.432 8.09 8.682 8.169 8.542 6.004 5.174" fill="url(#linear-gradient-18)"/><polygon points="8.09 8.682 8.169 8.542 8.764 8.542 9.02 8.682 8.09 8.682" fill="url(#linear-gradient-19)"/><polygon points="8.764 8.542 6.593 5.164 6.76 5.164 9.02 8.682 8.764 8.542" fill="url(#linear-gradient-20)"/><polygon points="6.76 5.164 6.593 5.164 8.764 1.784 9.02 1.644 6.76 5.164" fill="url(#linear-gradient-21)"/><polygon points="8.09 1.644 8.169 1.784 8.764 1.784 9.02 1.644 8.09 1.644" fill="url(#linear-gradient-22)"/><polygon points="8.169 1.784 6.002 5.154 6.004 4.894 8.09 1.644 8.169 1.784" fill="url(#linear-gradient-23)"/><polygon points="6.002 5.154 3.837 1.784 3.915 1.644 6.004 4.894 6.002 5.154" fill="url(#linear-gradient-24)"/><polygon points="3.242 1.784 2.985 1.644 3.915 1.644 3.837 1.784 3.242 1.784" fill="url(#linear-gradient-25)"/><polygon points="2.985 1.644 3.242 1.784 5.405 5.151 5.239 5.152 2.985 1.644" fill="url(#linear-gradient-26)"/><polygon points="5.405 5.151 2.102 10.326 2.025 10.186 5.239 5.152 5.405 5.151" fill="url(#linear-gradient-27)"/><polygon points="0 10.326 0.257 10.186 2.025 10.186 2.102 10.326 0 10.326" fill="url(#linear-gradient-28)"/><g mask="url(#mask-2)"><polygon points="3.541 5.158 5.153 5.151 3.116 8.341 1.981 7.603 3.541 5.158" opacity="0.6" fill="url(#linear-gradient-29)" style="mix-blend-mode:overlay"/></g></g></g></g></svg>
